<svg xmlns="http://www.w3.org/2000/svg" viewBox="0 0 64 64">
  <defs>
    <radialGradient id="glow" cx="50%" cy="38%" r="62%">
      <stop offset="0%" stop-color="#fff6b8"/>
      <stop offset="45%" stop-color="#e11d48"/>
      <stop offset="100%" stop-color="#7f1026"/>
    </radialGradient>
    <filter id="shadow" x="-30%" y="-30%" width="160%" height="160%">
      <feDropShadow dx="0" dy="3" stdDeviation="3" flood-color="#000000" flood-opacity="0.35"/>
    </filter>
  </defs>
  <circle cx="32" cy="32" r="30" fill="#061a10"/>
  <circle cx="32" cy="32" r="28" fill="none" stroke="#ffd700" stroke-width="3"/>
  <path filter="url(#shadow)" fill="url(#glow)" d="M32 51s-2.3-2-5.4-4.6C16.7 38.1 10 31.9 10 23.6 10 17 15.1 12 21.3 12c3.7 0 7.3 1.8 9.7 4.8C33.4 13.8 37 12 40.7 12 46.9 12 52 17 52 23.6c0 8.3-6.7 14.5-16.6 22.8C34.3 49 32 51 32 51z"/>
</svg>
